# xmcd
#
# Track frame offsets: 
#        150
#        17366
#        27790
#        42418
#        58011
#        72733
#        92791
#        117889
#        135216
#        154664
#        167808
#        188531
#
# Disc length: 2682 seconds
#
# Revision: 2
# Processed by: cddbd v1.5.2PL0 Copyright (c) Steve Scherf et al.
# Submitted via: ExactAudioCopy v0.99pb4
#
DISCID=940a780c
DTITLE=Aerosmith - Honkin' On Bobo
DYEAR=2004
DGENRE=Blues
TTITLE0=Road Runner
TTITLE1=Shame, Shame, Shame
TTITLE2=Eyesight To The Blind
TTITLE3=Baby, Please Don't Go
TTITLE4=Never Loved A Girl
TTITLE5=Back Back Train
TTITLE6=You Gotta Move
TTITLE7=The Grind
TTITLE8=I'm Ready
TTITLE9=Temperature
TTITLE10=Stop Messin' Around
TTITLE11=Jesus Is On The Mainline
EXTD=
EXTT0=
EXTT1=
EXTT2=
EXTT3=
EXTT4=
EXTT5=
EXTT6=
EXTT7=
EXTT8=
EXTT9=
EXTT10=
EXTT11=
PLAYORDER=
